<svg width="20" height="21" viewBox="0 0 20 21" fill="none" xmlns="http://www.w3.org/2000/svg">
<path d="M15.3501 9.072C18.0584 8.1171 20 5.57994 20 2.60699L19.9834 1.88061H15.7089V0H4.29118V1.88061H0.0165898L0 2.60699C0 5.57985 1.94162 8.11701 4.64987 9.072C5.28779 10.6445 6.64047 11.7885 8.30644 12.2927V14C8.23144 15.3375 7.07425 16.4756 5.68699 16.4756V18.0122H4.28996V21H15.71V18.0122H14.313V16.4756C12.9257 16.4756 11.7686 15.3375 11.6936 14V12.2927C13.3595 11.7885 14.7122 10.6444 15.3501 9.072ZM15.71 3.32927H18.3787C18.3734 3.36572 18.3697 3.41609 18.3637 3.45228C18.1 5.06194 17.0939 6.41285 15.7088 7.20898C15.7123 7.12882 15.71 3.32927 15.71 3.32927ZM1.63628 3.45228C1.63034 3.41609 1.62659 3.36572 1.62135 3.32927H4.28996C4.28996 3.32927 4.28769 7.12882 4.29109 7.20898C2.9061 6.41285 1.90006 5.06194 1.63628 3.45228ZM10 6.98096L8.23144 8.13511L8.80763 6.13396L7.13843 4.84622L9.26315 4.76367L10.0001 2.81357L10.737 4.76367L12.8617 4.84622L11.1924 6.13405L11.7686 8.13519L10 6.98096Z" fill="#1195FF"/>
</svg>
