<svg width="55" height="50" viewBox="0 0 55 50" fill="none" xmlns="http://www.w3.org/2000/svg">
<path d="M54.1451 14.7724C54.1077 14.4647 53.9521 14.1907 53.7072 14.0004C53.4624 13.8102 53.1592 13.7274 52.8507 13.7665C50.8553 14.0232 49.3115 15.0327 48.3675 15.8347L47.713 16.3899L47.6066 15.5379C47.5419 15.0218 47.4573 14.5011 47.3544 13.9895L47.2843 13.6409L47.6029 13.4825C49.0593 12.7588 50.179 11.5746 50.757 10.1491C51.5999 8.11734 51.3287 5.60772 50.0497 3.59692C49.3051 2.42539 48.505 1.34763 47.6694 0.393661C47.2497 -0.0851433 46.5188 -0.134298 46.0391 0.285339C44.6554 1.49509 43.7215 3.25921 43.3392 5.3847L43.3374 5.39744C43.0124 7.32813 43.2054 9.15506 43.8954 10.6807C47.5974 18.8504 44.6272 28.6568 36.9864 33.4913C36.5931 33.7398 36.2709 34.0848 36.0533 34.4898L35.9223 34.7338H28.3297V26.8918L34.7061 30.2024C35.1021 30.4082 35.5545 30.3736 35.9168 30.1105C36.2791 29.8474 36.452 29.4278 36.3783 28.9872L34.9874 20.6154L41.0325 14.6604C41.3502 14.3473 41.4576 13.9058 41.3193 13.4798C41.1809 13.0538 40.835 12.7607 40.3935 12.6942L32.0299 11.4344L28.2268 3.02618C28.0347 2.60199 27.6415 2.34893 27.1736 2.34893C26.7066 2.34893 26.3125 2.60199 26.1204 3.02618L22.3173 11.4344L13.9537 12.6942C13.5122 12.7607 13.1663 13.0547 13.028 13.4807C12.8896 13.9067 12.997 14.3473 13.3147 14.6604L19.3598 20.6154L17.9689 28.9872C17.8961 29.4278 18.0681 29.8474 18.4304 30.1105C18.7927 30.3736 19.2451 30.4082 19.6411 30.2024L26.0176 26.8918V34.7338H18.4004L18.2666 34.5026C17.9097 33.8872 17.3135 33.4758 16.7883 33.1126C13.4166 30.7868 10.8997 27.2987 9.7018 23.2916C8.46019 19.1362 8.73872 14.6531 10.4864 10.6679C11.1764 9.09316 11.3621 7.31994 11.039 5.39744L11.0363 5.38015C10.6558 3.25921 9.72183 1.496 8.3373 0.285339C7.8585 -0.133388 7.12663 -0.0851433 6.707 0.393661C5.87136 1.34763 5.07032 2.42539 4.32754 3.59601C3.04769 5.60863 2.77642 8.11825 3.61752 10.1454C4.19645 11.5746 5.31609 12.7588 6.77253 13.4825L7.09113 13.6409L7.02104 13.9895C6.91727 14.5029 6.83261 15.0254 6.76889 15.5415L6.66329 16.3908L6.00972 15.8383C4.66525 14.7032 3.06317 13.9668 1.49658 13.7656C1.18982 13.7265 0.885787 13.8093 0.640013 13.9995C0.395149 14.1898 0.239486 14.4638 0.201254 14.7715C0.0237505 16.2215 -0.0354165 17.5232 0.0201103 18.7503C0.0865604 21.0979 1.30906 23.3262 3.20881 24.5733L3.217 24.5788C4.47864 25.4444 6.04432 25.8094 7.67644 25.6001L8.02871 25.5546L8.16434 25.8832C8.36005 26.3583 8.5767 26.8344 8.80791 27.2977L9.19569 28.0724L8.33639 27.965C6.57046 27.7447 4.9629 27.985 3.55835 28.6805C3.28071 28.8179 3.0668 29.0655 2.97123 29.3595C2.87565 29.6535 2.90295 29.9794 3.04769 30.2534C3.60113 31.3066 4.25927 32.5236 5.07851 33.6369L5.0867 33.6478C6.45212 35.6231 8.65588 36.8028 10.9825 36.8028C12.4781 36.8028 13.91 36.2467 15.1234 35.1953L15.3974 34.9586L15.6941 35.1662C15.9445 35.3418 16.081 35.4483 16.1666 35.533L16.2967 35.6623L16.3031 35.8452C16.3031 35.858 16.3031 35.8725 16.3031 35.8889V47.6879H14.2204C13.5832 47.6879 13.0644 48.2068 13.0644 48.844C13.0644 49.4811 13.5832 50 14.2204 50H40.1296C40.7668 50 41.2856 49.4811 41.2856 48.844C41.2856 48.2068 40.7668 47.6879 40.1296 47.6879H38.0468V35.5567L38.2617 35.4201C38.3973 35.3337 38.5284 35.2463 38.6849 35.1416L38.9808 34.9431L39.2484 35.178C40.4654 36.2448 41.9392 36.8101 43.5094 36.8119H43.5613C45.9116 36.8119 48.1054 35.5221 49.5818 33.2737C50.2154 32.3088 50.8708 31.3111 51.3805 30.2033C51.6436 29.6317 51.4079 28.9645 50.8444 28.685C49.4471 27.9923 47.8842 27.7629 46.0673 27.9832L45.2107 28.087L45.5976 27.315C45.8279 26.8544 46.0454 26.3738 46.2448 25.8859L46.3786 25.5573L46.7309 25.601C47.0158 25.6365 47.3025 25.6547 47.5838 25.6547C48.8727 25.6547 50.1225 25.2724 51.1976 24.5496C53.07 23.2834 54.2698 21.0605 54.3271 18.7484V18.7384C54.3845 17.5214 54.3253 16.2233 54.1469 14.7696L54.1451 14.7724ZM6.70517 23.3499C5.9014 23.3371 5.14405 23.1014 4.51505 22.6663L4.48957 22.649C3.22065 21.8215 2.37317 20.265 2.33221 18.6829V18.6611C2.30672 18.1331 2.30672 17.5778 2.33221 17.0089L2.36225 16.3044L2.99672 16.6111C3.75224 16.9761 4.46317 17.4914 5.05393 18.1003C5.99243 19.0752 6.60231 20.1457 6.86811 21.2817L6.87448 21.3136C6.9555 21.8133 7.0538 22.3058 7.16577 22.7782L7.30322 23.3581L6.707 23.349L6.70517 23.3499ZM8.188 10.1582C8.09607 10.3821 8.0014 10.6142 7.91219 10.8554L7.70464 11.4144L7.21402 11.0748C6.55225 10.617 6.04978 9.99615 5.76031 9.27885L5.75484 9.26611C5.19502 7.92254 5.39528 6.22579 6.27825 4.83671C6.57773 4.36519 6.89086 3.90459 7.20946 3.46857L7.64275 2.87507L7.9923 3.52137C8.35004 4.18314 8.60855 4.94504 8.76057 5.78522C9.11376 7.89615 8.66408 8.99485 8.18892 10.1573L8.188 10.1582ZM13.0653 33.8563C12.4454 34.2522 11.6816 34.4898 10.8706 34.4898C9.55706 34.4898 8.11792 33.8672 6.95368 32.287C6.66239 31.8919 6.37201 31.4513 6.06616 30.9388L5.69477 30.3171L6.41479 30.2407C7.17396 30.1597 7.97682 30.2097 8.80153 30.3881C10.1833 30.7131 11.2884 31.2802 12.0949 32.0749L12.1104 32.0913C12.4454 32.4563 12.7895 32.8049 13.1335 33.129L13.5659 33.5368L13.0653 33.8572V33.8563ZM20.6269 27.0866L21.7375 20.4033C21.7994 20.0328 21.6755 19.6542 21.4088 19.3911L16.5826 14.6367L23.2831 13.6272C23.6727 13.569 24.0013 13.3196 24.1642 12.9609L27.1736 6.30772L30.183 12.9609C30.345 13.3196 30.6745 13.569 31.0641 13.6272L37.7638 14.6367L32.9375 19.3911C32.6699 19.6551 32.547 20.0338 32.6089 20.4042L33.7194 27.0875L32.8965 26.6606C28.356 24.3029 27.8035 24.0162 27.7352 23.9807C27.3429 23.7923 26.9852 23.7868 26.6411 23.9652L20.6278 27.0875L20.6269 27.0866ZM35.7329 47.6897H18.6125V37.0468H35.7329V47.6897ZM47.9807 30.2479L48.7262 30.3208L48.3284 30.9552C48.1099 31.3039 47.8778 31.658 47.653 32.0002C47.5774 32.1158 47.5019 32.2305 47.4272 32.3443L47.4127 32.3662C46.3895 33.7552 44.9404 34.5035 43.5103 34.5035C42.7484 34.5035 41.9911 34.2914 41.3065 33.8499L40.805 33.5268L41.2419 33.1208C41.6124 32.7767 41.972 32.418 42.3088 32.0548L42.3388 32.0257C43.7807 30.7313 45.9417 30.0504 47.9807 30.2489V30.2479ZM46.6708 11.4144L46.4632 10.8554C46.384 10.6434 46.2967 10.4358 46.2038 10.2173C45.7569 9.16234 45.2508 7.96715 45.614 5.7925V5.78613C45.7669 4.94504 46.0254 4.18405 46.3831 3.52137L46.7327 2.87507L47.1651 3.46857C47.4837 3.9055 47.7977 4.36701 48.0972 4.83853C48.9793 6.22579 49.1804 7.92254 48.6197 9.26611L48.6151 9.27885C48.3257 9.99706 47.8223 10.6179 47.1605 11.0757L46.6699 11.4144H46.6708ZM52.0159 18.6501V18.6793C51.9813 20.2386 51.153 21.7915 49.9041 22.6353C49.2268 23.0905 48.4822 23.3308 47.6921 23.349L47.095 23.3626L47.2297 22.7801C47.2852 22.5388 47.3298 22.304 47.3763 22.0546C47.6002 20.8612 47.8314 19.6269 49.3215 18.1031C49.9168 17.4895 50.6187 16.9743 51.3496 16.6157L51.9868 16.3025L52.0168 17.0116C52.0414 17.576 52.0405 18.1276 52.0159 18.6501Z" fill="white"/>
<path d="M23.9339 43.5233H30.4115C31.0487 43.5233 31.5675 43.0044 31.5675 42.3672C31.5675 41.73 31.0487 41.2112 30.4115 41.2112H23.9339C23.2967 41.2112 22.7779 41.73 22.7779 42.3672C22.7779 43.0044 23.2967 43.5233 23.9339 43.5233Z" fill="white"/>
</svg>
