<svg width="18" height="14" viewBox="0 0 18 14" fill="none" xmlns="http://www.w3.org/2000/svg">
<path fill-rule="evenodd" clip-rule="evenodd" d="M0.041687 0.75C0.041687 0.404822 0.321509 0.125 0.666687 0.125H17.3334C17.6785 0.125 17.9584 0.404822 17.9584 0.75V13.25C17.9584 13.5952 17.6785 13.875 17.3334 13.875H0.666687C0.321509 13.875 0.041687 13.5952 0.041687 13.25V0.75ZM1.29169 1.375V12.625H16.7084V1.375H1.29169Z" fill="#BCBCBC"/>
<path fill-rule="evenodd" clip-rule="evenodd" d="M0.166724 0.375037C0.373831 0.0988944 0.765581 0.04293 1.04172 0.250037L9.00006 6.21879L16.9584 0.250037C17.2345 0.04293 17.6263 0.0988944 17.8334 0.375037C18.0405 0.651179 17.9845 1.04293 17.7084 1.25004L9.37506 7.50004C9.15284 7.6667 8.84728 7.6667 8.62506 7.50004L0.291724 1.25004C0.0155814 1.04293 -0.040383 0.651179 0.166724 0.375037Z" fill="#BCBCBC"/>
<path fill-rule="evenodd" clip-rule="evenodd" d="M0.041687 0.75C0.041687 0.404822 0.321509 0.125 0.666687 0.125H9.00002C9.3452 0.125 9.62502 0.404822 9.62502 0.75C9.62502 1.09518 9.3452 1.375 9.00002 1.375H1.29169V7C1.29169 7.34518 1.01187 7.625 0.666687 7.625C0.321509 7.625 0.041687 7.34518 0.041687 7V0.75Z" fill="#BCBCBC"/>
<path fill-rule="evenodd" clip-rule="evenodd" d="M8.37502 0.75C8.37502 0.404822 8.65484 0.125 9.00002 0.125H17.3334C17.6785 0.125 17.9584 0.404822 17.9584 0.75V7C17.9584 7.34518 17.6785 7.625 17.3334 7.625C16.9882 7.625 16.7084 7.34518 16.7084 7V1.375H9.00002C8.65484 1.375 8.37502 1.09518 8.37502 0.75Z" fill="#BCBCBC"/>
</svg>
