<svg width="45" height="45" viewBox="0 0 45 45" fill="none" xmlns="http://www.w3.org/2000/svg">
<path d="M24.0101 0C24.0184 0.145994 24.0323 0.290623 24.0323 0.436617C24.0323 5.70195 24.0323 10.9673 24.0323 16.2326C24.0323 16.3909 24.0323 16.5492 24.0323 16.7361H20.9884C20.9745 16.6283 20.9481 16.5178 20.9481 16.4073C20.9467 11.0109 20.9467 5.61326 20.9481 0.216944C20.9481 0.144629 20.962 0.0723147 20.9703 0C21.984 0 22.9963 0 24.0101 0V0Z" fill="#1195FF"/>
<path d="M27.1414 20.1254C30.8574 20.708 34.361 21.6713 37.3424 23.943C38.0284 24.4656 38.6575 25.1014 39.1782 25.7837C40.7224 27.8085 40.6974 30.1212 39.174 32.1651C37.9423 33.8174 36.2468 34.8926 34.3929 35.7413C31.4851 37.0729 28.3995 37.7238 25.2168 37.9735C21.6563 38.2532 18.1361 38.0212 14.67 37.1534C12.201 36.5353 9.83196 35.6621 7.81287 34.0985C7.00607 33.4736 6.24787 32.7272 5.65492 31.9045C4.26349 29.9752 4.34542 27.7866 5.74101 25.8519C6.71029 24.5093 8.01561 23.5528 9.45425 22.7519C11.7025 21.4993 15.1796 20.4201 17.8417 20.1581V20.6247C17.8417 22.3071 17.8417 23.9908 17.8417 25.6731C17.8417 26.8247 18.4305 27.4141 19.5872 27.4155C21.523 27.4182 23.4587 27.4182 25.3959 27.4155C26.5513 27.4141 27.14 26.8247 27.1414 25.6731C27.1428 24.0044 27.1414 22.3371 27.1414 20.6684C27.1414 20.5088 27.1414 20.3505 27.1414 20.1254ZM6.2076 28.9682C6.23259 29.1947 6.24092 29.3694 6.27286 29.5386C6.48255 30.656 7.13799 31.5115 7.96146 32.2592C9.22651 33.4081 10.7179 34.2008 12.3162 34.7848C18.1638 36.9188 24.1142 37.0934 30.1326 35.5966C32.4558 35.0181 34.6554 34.1408 36.555 32.6563C37.4146 31.9836 38.1534 31.2004 38.5311 30.1607C38.6658 29.7896 38.713 29.3898 38.806 28.9805H37.2994C37.1508 29.3639 37.0925 29.7637 36.8717 30.0298C36.3579 30.6465 35.8274 31.2796 35.1914 31.7599C33.575 32.9796 31.6878 33.666 29.7326 34.1653C25.9514 35.13 22.1173 35.2733 18.2583 34.7561C15.7226 34.4164 13.2647 33.7833 11.0179 32.5389C9.52785 31.7135 8.11004 30.7884 7.70317 28.9696H6.20899L6.2076 28.9682Z" fill="#1195FF"/>
<path d="M19.422 18.2997H25.5681V25.871H19.422V18.2997Z" fill="#1195FF"/>
<path d="M3.13314 10.6589C3.57334 10.6589 3.98854 10.6426 4.40097 10.6698C4.49956 10.6767 4.65092 10.8145 4.67037 10.9127C5.02864 12.6783 5.92987 13.5242 7.72261 13.7275V15.2052C5.89099 15.4167 4.8495 16.41 4.63565 18.2451H3.21923C3.03176 17.7212 2.91789 17.2014 2.66794 16.7525C2.1833 15.8792 1.39316 15.3812 0.379451 15.2721C0.105888 15.242 -0.0163127 15.1643 0.00173973 14.875C0.0253467 14.4984 0.00729431 14.1205 0.00729431 13.7466C2.08471 13.5365 3.02204 12.1857 3.13175 10.6576L3.13314 10.6589Z" fill="#1195FF"/>
<path d="M38.8074 8.37477C39.2351 8.37477 39.6642 8.3584 40.0905 8.38705C40.1808 8.39251 40.3155 8.55215 40.3349 8.65858C40.6516 10.3546 41.6305 11.2646 43.4163 11.442V12.9129C41.5486 13.1284 40.4974 14.134 40.2919 15.9719H38.8074C38.7491 15.6772 38.7255 15.3838 38.6311 15.1151C38.2089 13.9021 37.3619 13.1639 36.0551 12.9893C35.7621 12.9497 35.6372 12.8665 35.658 12.5608C35.683 12.1993 35.6635 11.835 35.6635 11.4611C37.5479 11.2496 38.5825 10.2331 38.806 8.37477H38.8074Z" fill="#1195FF"/>
<path d="M27.1609 5.30488V3.83539C29.0147 3.64028 30.0423 2.62924 30.2728 0.800903H31.7573C31.9767 2.58967 32.989 3.63209 34.8734 3.83676V5.30079C33.0307 5.49863 31.985 6.50967 31.7614 8.34892H30.2784C30.0534 6.55061 29.0522 5.515 27.1609 5.30625V5.30488Z" fill="#1195FF"/>
<path d="M16.2947 7.58483C14.5325 7.7431 13.3647 8.7787 13.148 10.633H11.6761C11.4442 8.84556 10.4541 7.8004 8.57245 7.59438V6.12352C10.4068 5.91886 11.4428 4.91873 11.6622 3.0863H13.1661C13.2952 4.45755 13.959 5.43176 15.2824 5.92159C15.4476 5.98299 15.6295 6.05666 15.7976 6.04711C16.2683 6.0171 16.3322 6.26133 16.3003 6.63928C16.2725 6.95446 16.2947 7.27374 16.2947 7.58483Z" fill="#1195FF"/>
<path d="M14.7131 38.8057C16.3003 39.0513 17.8084 39.2846 19.3901 39.5288C19.2165 40.2124 19.0512 40.9165 18.854 41.611C18.7429 42.0039 18.5999 42.3914 18.4374 42.7666C18.025 43.7217 17.0294 44.2279 15.9948 44.011C15.1547 43.835 14.3604 43.5321 14.0257 42.6793C13.8674 42.2768 13.7771 41.772 13.873 41.3626C14.0799 40.488 14.4284 39.6462 14.7131 38.8043V38.8057Z" fill="#1195FF"/>
<path d="M25.5403 39.5398C27.1734 39.2888 28.6815 39.0554 30.2853 38.8085C30.5645 39.7076 30.8672 40.6191 31.1213 41.5455C31.1866 41.7829 31.1269 42.0722 31.0658 42.3232C30.8269 43.3029 29.8785 43.9797 28.6856 44.0465C27.7344 44.0997 26.8526 43.528 26.5263 42.592C26.1777 41.5892 25.8722 40.5713 25.5403 39.5398Z" fill="#1195FF"/>
<path d="M24.0128 39.6025C24.2794 40.6736 24.571 41.716 24.7849 42.7735C24.8501 43.0928 24.7682 43.483 24.6349 43.7913C24.1183 44.9907 22.8741 45.1872 21.5341 44.857C20.4995 44.6018 19.9885 43.558 20.2537 42.446C20.4329 41.6929 20.6162 40.9411 20.8217 40.1947C21.0203 39.4743 20.8411 39.5971 21.6327 39.6012C22.4047 39.6053 23.1768 39.6012 24.0114 39.6012L24.0128 39.6025Z" fill="#1195FF"/>
<path d="M31.7351 38.4374C32.9488 37.9516 34.1 37.4877 35.2553 37.0347C35.3359 37.0034 35.4608 37.0102 35.5386 37.0498C37.0856 37.8343 37.2244 39.6504 35.8233 40.6723C35.365 41.0066 34.9054 41.3177 34.2972 41.3136C33.4945 41.3081 32.8766 40.9739 32.5197 40.2766C32.2142 39.6817 31.9906 39.0459 31.7351 38.4387V38.4374Z" fill="#1195FF"/>
<path d="M13.2453 38.4332C12.9967 39.0268 12.7704 39.6285 12.4954 40.2084C12.1135 41.0134 11.3095 41.45 10.4055 41.2781C9.29319 41.0679 7.78651 39.9055 8.2642 38.4182C8.46694 37.7879 8.94602 37.4099 9.45149 37.0456C9.50981 37.0033 9.61396 37.0183 9.69589 37.0156C9.72228 37.0156 9.74866 37.0415 9.77643 37.0524C10.9151 37.5054 12.0524 37.9584 13.2453 38.4332Z" fill="#1195FF"/>
<path d="M3.26068 27.6774C2.94407 29.0692 3.15792 30.3449 3.70782 31.6616C3.10099 31.7735 2.54136 31.9427 1.97618 31.9686C0.977747 32.015 0.139005 31.2563 0.039023 30.2808C0.000140887 29.9056 -0.00124776 29.5194 0.039023 29.1442C0.154281 28.0158 1.22631 27.2517 2.36362 27.466C2.65245 27.5205 2.93574 27.5997 3.26207 27.6761L3.26068 27.6774Z" fill="#1195FF"/>
<path d="M41.7291 27.721C42.9206 27.2216 43.9398 27.3949 44.5536 28.1794C45.1549 28.9476 45.1535 30.5481 44.5203 31.2685C43.701 32.199 42.7956 32.1281 41.3069 31.585C41.8166 30.3461 42.036 29.0704 41.7291 27.721Z" fill="#1195FF"/>
<path d="M7.97118 36.1641C7.34074 36.5352 6.73112 36.9541 6.07013 37.2679C5.37164 37.5995 4.63705 37.504 4.0677 36.9882C3.28589 36.2801 2.98039 35.3577 3.19841 34.3249C3.31922 33.7545 3.70943 33.3384 4.26072 33.1037C4.35932 33.0614 4.57039 33.0914 4.62733 33.1651C5.53828 34.3276 6.66586 35.2472 7.9073 36.044C7.92813 36.0577 7.93508 36.0932 7.97118 36.1641Z" fill="#1195FF"/>
<path d="M37.0605 36.1764C37.9409 35.4274 38.7963 34.7083 39.6392 33.9729C39.8489 33.79 40.0489 33.5772 40.1891 33.3411C40.4252 32.9441 40.6779 33.026 40.9848 33.2306C41.6569 33.6795 41.9902 34.4736 41.8208 35.2554C41.818 35.2691 41.8152 35.2841 41.8125 35.2991C41.3667 37.5695 39.5434 37.957 38.1131 36.8314C37.7798 36.568 37.3882 36.3756 37.0633 36.1751L37.0605 36.1764Z" fill="#1195FF"/>
<path d="M3.88577 25.9186C2.75542 25.0686 3.00815 23.685 3.75524 22.5894C4.26904 21.8349 5.54104 21.3792 6.94079 22.5253C5.69934 23.4654 4.62314 24.5487 3.88577 25.9186Z" fill="#1195FF"/>
<path d="M41.0959 25.9118C40.3585 24.5597 39.3115 23.4736 38.0742 22.5567C38.9019 21.6466 40.3294 21.5743 41.1056 22.453C41.8777 23.3263 42.3193 25.0632 41.0959 25.9118Z" fill="#1195FF"/>
</svg>
