<svg width="54" height="50" viewBox="0 0 54 50" fill="none" xmlns="http://www.w3.org/2000/svg">
<path d="M26.6626 41.6345C27.2367 41.6345 27.7021 41.1691 27.7021 40.5949C27.7021 40.0208 27.2367 39.5554 26.6626 39.5554C26.0885 39.5554 25.623 40.0208 25.623 40.5949C25.623 41.1691 26.0885 41.6345 26.6626 41.6345Z" fill="white"/>
<path d="M50.3959 40.1629C48.7747 38.6218 46.6475 37.6642 44.4546 37.4657C47.5222 37.0516 49.8953 34.4173 49.8953 31.2377C49.8953 27.7714 47.0753 24.9514 43.609 24.9514C40.1427 24.9514 37.3227 27.7714 37.3227 31.2377C37.3227 34.4155 39.693 37.0479 42.7579 37.4648C40.4385 37.6697 38.1966 38.6946 36.6027 40.253C36.2686 39.8179 35.9072 39.4046 35.5195 39.0159C33.3894 36.885 30.625 35.617 27.652 35.3858C31.801 34.8952 35.0297 31.357 35.0297 27.0787C35.0297 22.4655 31.2767 18.7134 26.6644 18.7134C22.0521 18.7134 18.2991 22.4664 18.2991 27.0787C18.2991 31.3606 21.5323 34.9006 25.6859 35.3867C23.8153 35.5333 21.9975 36.0949 20.3772 37.0379C18.9617 37.8608 17.7201 38.9586 16.7252 40.253C15.1313 38.6946 12.8894 37.6687 10.57 37.4648C13.6349 37.0479 16.0052 34.4155 16.0052 31.2377C16.0052 27.7714 13.1852 24.9514 9.7189 24.9514C6.25261 24.9514 3.43261 27.7714 3.43261 31.2377C3.43261 34.4173 5.80567 37.0516 8.87327 37.4657C6.68044 37.6633 4.55315 38.6218 2.93196 40.1629C1.04043 41.9597 0 44.3282 0 46.8324V48.9114C0 49.5122 0.486992 50.0001 1.08868 50.0001H52.2374C52.8382 50.0001 53.3261 49.5131 53.3261 48.9114V46.8324C53.3261 44.3282 52.2856 41.9597 50.3959 40.1629ZM39.4991 31.2377C39.4991 28.9712 41.3424 27.1279 43.609 27.1279C45.8755 27.1279 47.7188 28.9712 47.7188 31.2377C47.7188 33.5043 45.8755 35.3476 43.609 35.3476C41.3424 35.3476 39.4991 33.5043 39.4991 31.2377ZM20.4737 27.0796C20.4737 23.667 23.25 20.8907 26.6626 20.8907C30.0752 20.8907 32.8515 23.667 32.8515 27.0796C32.8515 30.4922 30.0752 33.2685 26.6626 33.2685C23.25 33.2685 20.4737 30.4922 20.4737 27.0796ZM5.60723 31.2377C5.60723 28.9712 7.45052 27.1279 9.71708 27.1279C11.9836 27.1279 13.8269 28.9712 13.8269 31.2377C13.8269 33.5043 11.9836 35.3476 9.71708 35.3476C7.45052 35.3476 5.60723 33.5043 5.60723 31.2377ZM2.17644 46.8324C2.17644 42.9137 5.62999 39.604 9.71708 39.604C11.9427 39.604 14.1492 40.5843 15.5237 42.1445C14.6234 43.894 14.1473 45.8411 14.1392 47.8227H2.17644V46.8315V46.8324ZM16.3156 47.8237C16.3247 45.9785 16.8235 44.1717 17.7602 42.5942C19.6189 39.4674 23.0306 37.5249 26.6626 37.5249C29.4271 37.5249 32.0259 38.6009 33.9793 40.5561C34.591 41.1678 35.1244 41.8532 35.565 42.5942C36.5025 44.1717 37.0014 45.9795 37.0105 47.8237H16.3156ZM51.1496 47.8237H39.1869C39.1796 45.842 38.7027 43.895 37.8024 42.1454C39.1769 40.5852 41.3834 39.6049 43.609 39.6049C47.6961 39.6049 51.1496 42.9155 51.1496 46.8333V47.8246V47.8237Z" fill="white"/>
<path d="M21.8181 10.3433L21.0562 14.7873C20.9861 15.196 21.1545 15.6083 21.4895 15.8514C21.8245 16.0953 22.2687 16.1272 22.6355 15.9342L26.6252 13.836L30.6158 15.9342C30.7751 16.0179 30.949 16.0589 31.1219 16.0589C31.3477 16.0589 31.5725 15.9888 31.7619 15.8514C32.0968 15.6074 32.2643 15.1951 32.1942 14.7863L31.4314 10.3424L34.6601 7.19565C34.9569 6.90618 35.0634 6.47381 34.936 6.07966C34.8076 5.68552 34.4672 5.39878 34.0576 5.33871L29.5991 4.69151L27.6029 0.609878C27.4199 0.236669 27.0412 0 26.6252 0C26.2092 0 25.8306 0.236669 25.6476 0.609878L23.6514 4.69151L19.1929 5.33871C18.7833 5.39787 18.442 5.68552 18.3145 6.07966C18.1862 6.47381 18.2936 6.90618 18.5903 7.19565L21.819 10.3424L21.8181 10.3433ZM24.5325 6.76418C24.8885 6.7123 25.1961 6.48837 25.3536 6.16523L26.6243 3.56642L27.8951 6.16523C28.0534 6.48837 28.3602 6.7123 28.7161 6.76418L31.5607 7.17744L29.5017 9.18367C29.245 9.43399 29.1276 9.79445 29.1885 10.1476L29.6755 12.9822L27.1304 11.6441C26.8137 11.4775 26.435 11.4775 26.1173 11.6441L23.5731 12.9822L24.0592 10.1476C24.1202 9.79445 24.0028 9.43399 23.7461 9.18458L21.6871 7.17835L24.5316 6.76509L24.5325 6.76418Z" fill="white"/>
<path d="M40.5013 17.114L39.987 20.1142C39.917 20.522 40.0844 20.9353 40.4203 21.1783C40.7553 21.4223 41.1995 21.4541 41.5664 21.2611L44.2616 19.8448L46.9569 21.2611C47.1162 21.3449 47.2901 21.3858 47.463 21.3858C47.6888 21.3858 47.9136 21.3158 48.103 21.1783C48.4379 20.9344 48.6054 20.522 48.5363 20.1142L48.022 17.114L50.202 14.9885C50.4988 14.699 50.6053 14.2667 50.4769 13.8725C50.3486 13.4784 50.0082 13.1916 49.5985 13.1316L46.5856 12.6937L45.2384 9.96384C45.0554 9.59245 44.6767 9.35669 44.2626 9.35669C43.8484 9.35669 43.4697 9.59154 43.2868 9.96293L41.9387 12.6937L38.9257 13.1316C38.5161 13.1907 38.1756 13.4784 38.0473 13.8725C37.9189 14.2667 38.0263 14.699 38.3222 14.9885L40.5023 17.114H40.5013ZM42.8171 14.7664C43.1711 14.7145 43.4779 14.4924 43.6363 14.1711L44.2607 12.9049L44.8852 14.1702C45.0436 14.4915 45.3503 14.7145 45.7044 14.7655L47.1017 14.9685L46.0904 15.9543C45.8337 16.2046 45.7172 16.5642 45.7772 16.9174L46.0157 18.3082L44.7659 17.6519C44.4492 17.4854 44.0705 17.4854 43.7537 17.6519L42.503 18.3091L42.7415 16.9183C42.8025 16.5651 42.6851 16.2055 42.4284 15.9552L41.4171 14.9694L42.8143 14.7664H42.8171Z" fill="white"/>
<path d="M5.15485 17.114L4.64055 20.1142C4.57045 20.522 4.73794 20.9353 5.07383 21.1783C5.26317 21.3158 5.488 21.3858 5.71375 21.3858C5.8867 21.3858 6.06056 21.3449 6.21986 21.2611L8.91515 19.8448L11.6104 21.2611C11.9773 21.4541 12.4215 21.4213 12.7565 21.1783C13.0914 20.9344 13.2589 20.522 13.1898 20.1142L12.6755 17.114L14.8555 14.9885C15.1523 14.699 15.2588 14.2667 15.1304 13.8725C15.0021 13.4784 14.6617 13.1916 14.252 13.1316L11.2391 12.6937L9.89187 9.96384C9.7089 9.59245 9.33023 9.35669 8.91606 9.35669C8.50189 9.35669 8.12322 9.59154 7.94026 9.96293L6.59215 12.6937L3.57918 13.1316C3.16956 13.1907 2.82912 13.4784 2.70077 13.8725C2.57242 14.2667 2.67983 14.699 2.97567 14.9885L5.15576 17.114H5.15485ZM7.47056 14.7664C7.82465 14.7145 8.13141 14.4924 8.2898 14.1711L8.91424 12.9049L9.53868 14.1702C9.69707 14.4915 10.0038 14.7145 10.3579 14.7655L11.7552 14.9685L10.7439 15.9543C10.4872 16.2046 10.3707 16.5642 10.4307 16.9174L10.6692 18.3082L9.41944 17.6519C9.10267 17.4854 8.724 17.4854 8.40722 17.6519L7.15652 18.3091L7.39501 16.9183C7.456 16.5651 7.33857 16.2055 7.08188 15.9552L6.07057 14.9694L7.46783 14.7664H7.47056Z" fill="white"/>
<path d="M31.2458 40.8753C30.7433 40.5449 30.0688 40.685 29.7384 41.1875C29.408 41.69 29.5481 42.3645 30.0506 42.6949C31.0046 43.3221 31.7674 44.195 32.2553 45.2209C32.4419 45.6123 32.8315 45.8417 33.2384 45.8417C33.3949 45.8417 33.5542 45.808 33.7053 45.7361C34.2478 45.4776 34.479 44.8286 34.2205 44.2861C33.5615 42.9006 32.5329 41.7218 31.2458 40.8762V40.8753Z" fill="white"/>
</svg>
