<svg width="45" height="45" viewBox="0 0 45 45" fill="none" xmlns="http://www.w3.org/2000/svg">
<path d="M6.41147 45C5.6373 44.6997 5.37514 44.1211 5.37787 43.3118C5.39562 38.8326 5.39016 34.3534 5.37924 29.8742C5.37924 29.5139 5.45297 29.3201 5.81207 29.1441C6.24762 28.9298 6.64632 28.6009 6.99312 28.2542C12.0232 23.2428 17.0424 18.2204 22.0629 13.198C22.1858 13.0739 22.2827 12.9237 22.3646 12.82C27.2104 17.665 32.0001 22.4539 36.8049 27.2566C35.6976 28.13 35.389 29.548 34.7063 30.7436C34.5616 30.9974 34.3554 31.2417 34.1233 31.4178C33.599 31.8149 33.0392 32.1643 32.4971 32.5382C30.1965 34.1268 30.1842 37.315 32.4726 38.9213C32.5081 38.9459 32.5436 38.9745 32.5818 38.9936C34.0523 39.7279 34.989 40.8988 35.546 42.4383C35.9679 43.6052 36.7844 44.4418 37.9914 44.8526C38.0515 44.8731 38.0925 44.9481 38.1416 44.9986H27.594C27.5872 44.8526 27.5736 44.7079 27.5736 44.5619C27.5736 41.1636 27.5845 37.7667 27.5695 34.3684C27.5544 30.9428 24.6216 28.4917 21.2819 29.0908C18.8078 29.5344 17.0232 31.7235 17.0137 34.3698C17 37.7681 17.0096 41.165 17.0123 44.5633C17.0123 44.7079 17.0355 44.854 17.0478 44.9986H6.41147V45Z" fill="#1195FF"/>
<path d="M44.9986 22.5918C44.8403 22.7979 44.7023 23.023 44.5221 23.2059C43.4312 24.31 42.3307 25.4046 41.2315 26.5018C40.7018 27.03 40.4355 27.0314 39.9098 26.5059C34.223 20.8217 28.5376 15.1374 22.8535 9.45037C22.7306 9.32754 22.6432 9.1665 22.4684 8.9263C22.2827 9.17332 22.1926 9.32891 22.0697 9.45174C16.428 15.0978 10.7821 20.7398 5.1376 26.3831C4.50679 27.0136 4.28833 27.0123 3.65752 26.3831C2.55976 25.2858 1.46062 24.1886 0.364217 23.0899C-0.120494 22.6041 -0.12186 22.3175 0.362852 21.833C1.84293 20.3508 3.32437 18.87 4.80581 17.3906C4.89729 17.2992 4.9956 17.2146 5.09118 17.1259C5.38474 17.3961 5.64143 17.6772 5.94181 17.9024C7.91479 19.3791 10.6988 18.7404 11.8348 16.5458C12.2786 15.6887 12.6595 14.8003 13.1033 13.9432C13.2371 13.6853 13.4528 13.4451 13.6876 13.2704C14.3103 12.8077 14.9656 12.3915 15.6019 11.9479C17.6227 10.5381 17.9872 8.00508 16.4512 6.06983C16.4157 6.02479 16.3815 5.97839 16.3242 5.90196C16.4211 5.79688 16.5126 5.68906 16.6123 5.58807C18.3409 3.85753 20.0708 2.12837 21.8008 0.399199C22.3319 -0.131698 22.5913 -0.133063 23.1211 0.395104C30.2689 7.53833 37.4153 14.6815 44.559 21.8289C44.7297 22.0008 44.8539 22.2192 45 22.4157V22.5918H44.9986Z" fill="#1195FF"/>
<path d="M44.9986 36.0362C44.6914 36.3542 44.3924 36.6803 44.0729 36.9861C43.9268 37.1253 43.7479 37.2413 43.5677 37.3327C42.2282 38.0137 41.3462 39.0742 40.8601 40.4922C40.714 40.918 40.4751 41.311 40.2771 41.7177C40.0573 42.1681 39.6886 42.4124 39.1943 42.411C38.7001 42.411 38.3341 42.1626 38.1157 41.7109C37.6719 40.7897 37.2446 39.8603 36.7762 38.9513C36.6438 38.6934 36.4281 38.4505 36.1932 38.2785C35.4982 37.7681 34.7719 37.3 34.0619 36.81C33.1825 36.204 33.1866 35.2774 34.066 34.6646C34.2817 34.5145 34.4865 34.3411 34.72 34.2238C36.1509 33.5073 37.0725 32.3677 37.5927 30.8691C37.7265 30.4856 37.9355 30.1267 38.1184 29.761C38.3396 29.3174 38.6932 29.0704 39.1998 29.0704C39.7064 29.0704 40.0614 29.3188 40.2784 29.765C40.7331 30.6972 41.1687 31.6389 41.637 32.5642C41.749 32.7867 41.9306 32.9996 42.1313 33.1456C42.8044 33.6369 43.5226 34.0682 44.1807 34.5772C44.5016 34.8256 44.7282 35.1941 44.9972 35.508V36.0348L44.9986 36.0362Z" fill="#1195FF"/>
<path d="M19.597 44.9999C19.6161 44.8129 19.6503 44.626 19.6503 44.439C19.653 41.1021 19.6489 37.7653 19.6543 34.4297C19.6571 33.1086 20.3671 32.096 21.5099 31.7493C23.0678 31.2758 24.7186 32.2857 24.8715 33.9098C24.9766 35.0234 24.892 36.1562 24.892 37.3531C24.5178 37.3531 24.1314 37.3504 23.7437 37.3531C22.8835 37.3599 22.3018 37.8881 22.2977 38.6633C22.2936 39.4412 22.8767 39.983 23.7287 39.9912C24.1082 39.9953 24.4878 39.9912 24.9589 39.9912V44.9999H19.597Z" fill="#1195FF"/>
<path d="M14.7595 8.62473C14.739 9.10104 14.5315 9.48045 14.1259 9.75613C13.2548 10.3484 12.381 10.9367 11.5235 11.5481C11.3324 11.6846 11.1644 11.8893 11.0593 12.0981C10.5555 13.1039 10.0653 14.1179 9.5915 15.1388C9.33344 15.6943 8.94157 16.0532 8.31896 16.0559C7.69634 16.06 7.29765 15.7011 7.03959 15.1483C6.55625 14.1166 6.06334 13.0875 5.55542 12.0667C5.45711 11.8688 5.296 11.675 5.11577 11.5481C4.28015 10.9558 3.42679 10.3894 2.58298 9.80799C1.61492 9.14062 1.62038 8.11294 2.5939 7.44284C3.34077 6.92832 4.08081 6.40152 4.84269 5.9102C5.23865 5.65499 5.51583 5.34245 5.70971 4.90982C6.13298 3.96267 6.60131 3.03599 7.04369 2.09703C7.30311 1.54839 7.69634 1.19764 8.32988 1.20583C8.94157 1.21402 9.32388 1.55248 9.57648 2.08884C10.0626 3.12061 10.5527 4.14964 11.0634 5.16913C11.1685 5.3793 11.3419 5.57993 11.5331 5.71504C12.3796 6.31827 13.2412 6.89693 14.1014 7.48105C14.5042 7.75401 14.7308 8.1225 14.7595 8.622V8.62473Z" fill="#1195FF"/>
<path d="M30.0067 3.41399C30.1651 3.40444 30.3235 3.38669 30.4818 3.38669C32.063 3.38533 33.6441 3.3826 35.2252 3.38669C36.3093 3.38942 36.8104 3.89439 36.8118 4.97256C36.8131 6.71401 36.8118 8.4541 36.8118 10.0809C34.6108 7.87816 32.3592 5.62629 30.1064 3.37305C30.0722 3.38669 30.0395 3.40034 30.0053 3.41399H30.0067Z" fill="#1195FF"/>
</svg>
