<svg width="30" height="30" viewBox="0 0 30 30" fill="none" xmlns="http://www.w3.org/2000/svg">
<rect width="30" height="30" rx="5" fill="#1195FF"/>
<g clip-path="url(#clip0_164_59)">
<path d="M11.2233 21.0004H8.23786V11.6535H11.2233V21.0004ZM9.72896 10.3785C8.77432 10.3785 8 9.60979 8 8.68167C8 8.23586 8.18216 7.8083 8.5064 7.49307C8.83065 7.17783 9.27041 7.00073 9.72896 7.00073C10.1875 7.00073 10.6273 7.17783 10.9515 7.49307C11.2758 7.8083 11.4579 8.23586 11.4579 8.68167C11.4579 9.60979 10.6833 10.3785 9.72896 10.3785ZM22.3968 21.0004H19.4178V16.4504C19.4178 15.366 19.3953 13.9754 17.8656 13.9754C16.3134 13.9754 16.0756 15.1535 16.0756 16.3723V21.0004H13.0934V11.6535H15.9566V12.9285H15.9984C16.397 12.1942 17.3706 11.4192 18.8231 11.4192C21.8446 11.4192 22.4 13.3535 22.4 15.866V21.0004H22.3968Z" fill="white"/>
</g>
<defs>
<clipPath id="clip0_164_59">
<rect width="14.4" height="16" fill="white" transform="translate(8 7)"/>
</clipPath>
</defs>
</svg>
