<svg width="30" height="30" viewBox="0 0 30 30" fill="none" xmlns="http://www.w3.org/2000/svg">
<rect width="30" height="30" rx="5" fill="#1195FF"/>
<path d="M17.24 15C17.24 15.443 17.1086 15.8761 16.8625 16.2445C16.6164 16.6128 16.2665 16.9 15.8572 17.0695C15.4479 17.239 14.9975 17.2834 14.563 17.197C14.1285 17.1105 13.7294 16.8972 13.4161 16.5839C13.1028 16.2706 12.8895 15.8715 12.803 15.437C12.7166 15.0025 12.761 14.5521 12.9305 14.1428C13.1 13.7335 13.3872 13.3836 13.7555 13.1375C14.1239 12.8914 14.557 12.76 15 12.76C15.5939 12.7607 16.1632 12.9969 16.5832 13.4168C17.0031 13.8368 17.2393 14.4061 17.24 15ZM22 11.92V18.08C21.9988 19.1193 21.5854 20.1157 20.8506 20.8506C20.1157 21.5854 19.1193 21.9988 18.08 22H11.92C10.8807 21.9988 9.88433 21.5854 9.14944 20.8506C8.41455 20.1157 8.00118 19.1193 8 18.08V11.92C8.00118 10.8807 8.41455 9.88433 9.14944 9.14944C9.88433 8.41455 10.8807 8.00118 11.92 8H18.08C19.1193 8.00118 20.1157 8.41455 20.8506 9.14944C21.5854 9.88433 21.9988 10.8807 22 11.92ZM18.36 15C18.36 14.3355 18.1629 13.6858 17.7937 13.1333C17.4245 12.5807 16.8998 12.1501 16.2858 11.8958C15.6719 11.6415 14.9963 11.5749 14.3445 11.7046C13.6927 11.8342 13.094 12.1542 12.6241 12.6241C12.1542 13.094 11.8342 13.6927 11.7046 14.3445C11.5749 14.9963 11.6415 15.6719 11.8958 16.2858C12.1501 16.8998 12.5807 17.4245 13.1333 17.7937C13.6858 18.1629 14.3355 18.36 15 18.36C15.8908 18.359 16.7449 18.0047 17.3748 17.3748C18.0047 16.7449 18.359 15.8908 18.36 15ZM19.48 11.36C19.48 11.1939 19.4307 11.0315 19.3384 10.8933C19.2461 10.7552 19.1149 10.6475 18.9615 10.5839C18.808 10.5204 18.6391 10.5037 18.4761 10.5361C18.3132 10.5686 18.1635 10.6486 18.046 10.766C17.9286 10.8835 17.8486 11.0332 17.8161 11.1961C17.7837 11.3591 17.8004 11.528 17.8639 11.6815C17.9275 11.8349 18.0352 11.9661 18.1733 12.0584C18.3115 12.1507 18.4739 12.2 18.64 12.2C18.8628 12.2 19.0764 12.1115 19.234 11.954C19.3915 11.7964 19.48 11.5828 19.48 11.36Z" fill="white"/>
</svg>
