<svg width="14" height="18" viewBox="0 0 14 18" fill="none" xmlns="http://www.w3.org/2000/svg">
<path d="M0.125 6.91675C0.125 3.11978 3.20303 0.041748 7 0.041748C10.797 0.041748 13.875 3.11978 13.875 6.91675C13.875 9.84657 12.1971 12.5931 10.6105 14.55C9.80756 15.5402 9.00615 16.3548 8.4057 16.9219C8.10509 17.2058 7.85384 17.4286 7.6766 17.5814C7.58795 17.6578 7.51774 17.7168 7.46904 17.7571C7.44469 17.7773 7.42571 17.7929 7.41248 17.8036L7.397 17.8162L7.39259 17.8197L7.39122 17.8208C7.39122 17.8208 7.39043 17.8215 7 17.3334C6.60957 17.8215 6.60924 17.8212 6.60924 17.8212L6.60741 17.8197L6.603 17.8162L6.58752 17.8036C6.57429 17.7929 6.55531 17.7773 6.53096 17.7571C6.48226 17.7168 6.41205 17.6578 6.3234 17.5814C6.14616 17.4286 5.89491 17.2058 5.5943 16.9219C4.99385 16.3548 4.19244 15.5402 3.38953 14.55C1.80289 12.5931 0.125 9.84657 0.125 6.91675ZM7 17.3334L6.60924 17.8212C6.8375 18.0038 7.16217 18.0041 7.39043 17.8215L7 17.3334ZM7 16.513C7.14898 16.3818 7.33479 16.214 7.54742 16.0131C8.11885 15.4735 8.87994 14.6995 9.63953 13.7627C11.1779 11.8654 12.625 9.40359 12.625 6.91675C12.625 3.81013 10.1066 1.29175 7 1.29175C3.89339 1.29175 1.375 3.81013 1.375 6.91675C1.375 9.40359 2.82211 11.8654 4.36047 13.7627C5.12006 14.6995 5.88115 15.4735 6.45258 16.0131C6.66521 16.214 6.85102 16.3818 7 16.513Z" fill="#BCBCBC"/>
<path d="M3.875 6.91675C3.875 5.19086 5.27411 3.79175 7 3.79175C8.72589 3.79175 10.125 5.19086 10.125 6.91675C10.125 8.64264 8.72589 10.0417 7 10.0417C5.27411 10.0417 3.875 8.64264 3.875 6.91675ZM7 5.04175C5.96447 5.04175 5.125 5.88122 5.125 6.91675C5.125 7.95228 5.96447 8.79175 7 8.79175C8.03553 8.79175 8.875 7.95228 8.875 6.91675C8.875 5.88122 8.03553 5.04175 7 5.04175Z" fill="#BCBCBC"/>
</svg>
