<svg width="181" height="45" viewBox="0 0 181 45" fill="none" xmlns="http://www.w3.org/2000/svg">
<path d="M3.41551 26.8459C4.87557 26.7956 6 26.5 6 26.5C6 26.5 4.87557 26.2044 3.41551 26.1533C3.35522 24.9372 3.0005 24 3.0005 24C3.0005 24 2.64478 24.9372 2.58449 26.1533C1.12343 26.2044 0 26.5 0 26.5C0 26.5 1.12343 26.7956 2.58449 26.8459C2.64478 28.0637 3.0005 29 3.0005 29C3.0005 29 3.35622 28.0637 3.41551 26.8459Z" fill="white"/>
<path d="M9.55418 30.5538C11.5009 30.4732 13 30 13 30C13 30 11.5009 29.5268 9.55418 29.4462C9.47368 27.4993 8.99951 26 8.99951 26C8.99951 26 8.52632 27.4993 8.44582 29.4462C6.49908 29.5268 5 30 5 30C5 30 6.49908 30.4732 8.44582 30.5538C8.52632 32.5007 8.99951 34 8.99951 34C8.99951 34 9.47368 32.5007 9.55418 30.5538Z" fill="white"/>
<path d="M21.2767 16.2767C22.2499 16.2367 23 16 23 16C23 16 22.2509 15.7633 21.2767 15.7223C21.2367 14.7491 21 14 21 14C21 14 20.7633 14.7501 20.7233 15.7223C19.7491 15.7633 19 16 19 16C19 16 19.7491 16.2367 20.7233 16.2767C20.7633 17.2509 21 18 21 18C21 18 21.2367 17.2509 21.2767 16.2767Z" fill="white"/>
<path d="M24.8464 18.846C26.0634 18.7959 27 18.5 27 18.5C27 18.5 26.0634 18.2041 24.8464 18.154C24.7963 16.9368 24.4995 16 24.4995 16C24.4995 16 24.2037 16.9377 24.1536 18.154C22.9366 18.2041 22 18.5 22 18.5C22 18.5 22.9366 18.7959 24.1536 18.846C24.2037 20.0632 24.4995 21 24.4995 21C24.4995 21 24.7953 20.0632 24.8464 18.846Z" fill="white"/>
<path d="M9.44801 11.0439C9.07747 11.1493 8.70693 11.2647 8.33966 11.3912C8.66976 11.2065 9.00751 11.0309 9.35292 10.8613L7.86528 8C4.64626 11.3922 2.61866 15.5862 2 20C3.55978 16.7172 6.30004 13.8881 10 12.1057L9.44801 11.0439Z" fill="white"/>
<path d="M15.1311 2.26817C14.0208 2.81545 12.9765 3.44462 12 4.1457L13.7216 8.90544C21.8098 6.91506 30.4512 10.8199 34.2379 18.7245C38.6053 27.8405 34.861 38.8231 25.876 43.2533C25.3504 43.5129 24.8179 43.7436 24.2814 43.9474C29.1105 40.9653 32.1373 35.9639 32.8096 30.561C31.6097 34.8393 28.6883 38.6004 24.435 40.6986C20.8766 42.4533 16.9925 42.7449 13.443 41.8072C18.9316 45.1308 25.7392 45.9927 32.0724 43.7616C40.6084 38.0002 43.8459 26.5832 39.2402 16.9688C34.5076 7.09282 23.1878 2.64368 13.2521 6.41771C13.8151 6.06917 14.3988 5.7456 15.0042 5.44699C25.3406 0.349693 37.7923 4.71895 42.8153 15.2062C47.6582 25.3159 43.8291 37.4189 34.2881 42.8428C34.3639 42.8059 34.4397 42.7699 34.5155 42.733C45.5291 37.3021 50.117 23.8408 44.7643 12.6675C39.4115 1.49319 26.1448 -3.16269 15.1311 2.26817Z" fill="white"/>
<path d="M7.87422 3.0884C6.93439 3.48161 6.71857 5.07314 7.39187 6.64403L16.7027 25.9213L15.3322 26.4924C14.82 26.7048 14.5803 27.2887 14.7961 27.7949C14.9135 28.0702 15.1432 28.2658 15.4098 28.3523C16.7484 32.8526 13.2914 38.6722 12.1049 40.4839C13.0478 40.7287 14.0015 40.886 14.9553 40.9587C16.814 38.5906 17.8295 35.5805 17.6345 32.4063C17.7101 32.7406 17.7777 33.0787 17.8275 33.4238C18.2153 36.1242 17.7101 38.7449 16.5395 41C18.0393 40.9666 19.5231 40.7257 20.9483 40.2863C21.3899 38.7724 21.553 37.1603 21.3859 35.5147C21.4754 35.845 21.555 36.1812 21.6176 36.5243C21.8354 37.7019 21.8802 38.8708 21.7718 40.0071C23.004 39.553 24.1825 38.9484 25.2795 38.1984C25.3421 35.3741 24.462 32.5253 22.6072 30.1542C22.8608 30.3882 23.1084 30.631 23.3461 30.8885C25.0557 32.7465 26.1 34.9681 26.5027 37.2714C27.4167 36.5075 28.2561 35.6326 29 34.6506C28.7205 31.5029 23.6514 27.6789 20.9374 26.0274C21.0507 25.7837 21.0647 25.4956 20.9503 25.2292C20.7345 24.723 20.1437 24.4861 19.6325 24.6984L18.2362 25.2803L10.7932 5.2206C10.1209 3.6507 8.81305 2.69519 7.87521 3.0884H7.87422Z" fill="white"/>
<path d="M75.1051 26.9176C74.764 28.0471 74.2254 28.9912 73.4892 29.75C72.7531 30.5088 71.8823 31.0735 70.8769 31.4441C69.8714 31.8147 68.7672 32 67.5643 32C65.8047 32 64.2786 31.6382 62.9859 30.9147C61.7111 30.1912 60.7236 29.1588 60.0234 27.8176C59.3411 26.4765 59 24.8706 59 23C59 21.1294 59.3411 19.5235 60.0234 18.1824C60.7236 16.8412 61.7111 15.8088 62.9859 15.0853C64.2786 14.3618 65.7868 14 67.5104 14C68.7313 14 69.8355 14.1676 70.823 14.5029C71.8105 14.8206 72.6454 15.3147 73.3276 15.9853C74.0279 16.6559 74.5396 17.5029 74.8627 18.5265L71.4963 19.9294C71.1911 18.8706 70.7242 18.1206 70.0958 17.6794C69.4674 17.2206 68.6595 16.9912 67.672 16.9912C66.7025 16.9912 65.8496 17.2206 65.1135 17.6794C64.3953 18.1382 63.8387 18.8176 63.4437 19.7176C63.0487 20.6 62.8512 21.6941 62.8512 23C62.8512 24.2882 63.0308 25.3824 63.3899 26.2824C63.7669 27.1824 64.3145 27.8618 65.0327 28.3206C65.7509 28.7794 66.6306 29.0088 67.672 29.0088C68.6415 29.0088 69.4764 28.7529 70.1766 28.2412C70.8948 27.7294 71.3975 26.9529 71.6848 25.9118L75.1051 26.9176Z" fill="white"/>
<path d="M81.9893 28.7971H91.3615V31.7353H78.2728V14.2647H81.9893V28.7971Z" fill="white"/>
<path d="M94.4475 31.7353V14.2647H107.779V17.2029H98.1641V21.5441H105.732V24.35H98.1641V28.7971H108.156V31.7353H94.4475Z" fill="white"/>
<path d="M126.922 31.7353H123.071L121.59 27.4735H114.776L113.295 31.7353H109.497L115.988 14.2647H120.432L126.922 31.7353ZM115.611 24.7735H120.755L118.169 17.15L115.611 24.7735Z" fill="white"/>
<path d="M144.829 14.2647V31.7353H140.574L134.352 21.4647L132.817 18.6059H132.79L132.898 21.6235V31.7353H129.559V14.2647H133.787L140.008 24.5088L141.543 27.3941H141.597L141.489 24.3765V14.2647H144.829Z" fill="white"/>
<path d="M149.468 31.7353V14.2647H162.799V17.2029H153.185V21.5441H160.752V24.35H153.185V28.7971H163.176V31.7353H149.468Z" fill="white"/>
<path d="M181 31.7353H176.583L172.705 25.5412L168.881 31.7353H164.626L170.739 22.9206L165.056 14.2647H169.419L173.001 20.1412L176.637 14.2647H180.677L174.967 22.7882L181 31.7353Z" fill="white"/>
</svg>
