<svg width="45" height="45" viewBox="0 0 45 45" fill="none" xmlns="http://www.w3.org/2000/svg">
<path d="M15.4195 16.7952C12.8891 16.7952 10.4558 16.7952 8.02249 16.7952C7.28652 16.7952 6.54906 16.8057 5.81309 16.7877C5.28015 16.7756 4.89799 16.4639 4.88157 15.9368C4.84425 14.827 4.86962 13.7156 4.86962 12.5712H30.1254C30.1254 13.7292 30.1612 14.8707 30.1105 16.0076C30.0866 16.5407 29.6641 16.7922 29.0267 16.7922C26.2246 16.7952 23.4211 16.7922 20.619 16.7922C20.304 16.7922 19.9876 16.7922 19.6218 16.7922C19.68 16.9458 19.7099 17.0497 19.7562 17.1461C20.3473 18.3809 20.931 19.6187 21.5431 20.8445C21.6177 20.9936 21.8342 21.1638 21.9865 21.1653C26.2948 21.1804 30.6031 21.1758 34.9114 21.1728C34.9577 21.1728 35.0025 21.1517 34.9935 21.1533C34.6427 19.6986 34.2919 18.2469 33.9411 16.7967C33.8724 16.5151 33.7933 16.2335 33.7485 15.9489C33.6739 15.4836 33.8754 15.208 34.3322 15.2065C36.7984 15.1959 39.2645 15.1944 41.7307 15.2065C42.2308 15.2095 42.4069 15.5242 42.2726 16.1025C41.9456 17.5 41.6142 18.8959 41.2769 20.2904C41.2097 20.566 41.1097 20.8355 41.0141 21.1442C41.1261 21.1548 41.2589 21.1758 41.3918 21.1758C42.2726 21.1789 43.1533 21.1758 44.0341 21.1773C44.8582 21.1773 44.991 21.3099 44.991 22.123C44.991 25.6604 44.991 29.1992 44.991 32.7366C44.991 36.6293 44.9851 40.5236 45 44.4163C45.0015 44.8455 44.9104 45.0232 44.4461 44.9976C43.6952 44.9584 42.9399 44.9629 42.189 44.9961C41.7516 45.0156 41.6142 44.8861 41.6172 44.4298C41.6351 40.8112 41.6277 37.1925 41.6277 33.5739V25.817H32.6632C31.9332 23.6289 30.7001 22.6034 28.9072 22.6501C27.1442 22.6968 25.9484 23.7434 25.3453 25.8019H3.36783V26.4179C3.36783 32.3947 3.36783 38.3731 3.36783 44.35C3.36783 44.7747 3.15834 44.9875 2.73935 44.9885C1.98696 44.9885 1.23308 44.975 0.480692 44.9946C0.143312 45.0096 0 44.9268 0 44.5473C0.008957 37.0028 0.00597133 29.4583 0.008957 21.9137C0.008957 21.3581 0.21049 21.1849 0.840465 21.1849C3.16331 21.1819 5.48467 21.1849 7.80752 21.1834C9.48845 21.1834 11.1709 21.1713 12.8518 21.1924C13.2131 21.1969 13.3877 21.0734 13.537 20.7512C14.1356 19.4531 14.7626 18.1686 15.4195 16.7967V16.7952ZM38.0479 19.3929C38.6928 19.3808 39.2227 18.8297 39.2167 18.1761C39.2123 17.524 38.6704 16.9804 38.0255 16.9804C37.3641 16.9804 36.8058 17.5602 36.8297 18.2228C36.8536 18.8794 37.4015 19.4049 38.0479 19.3929ZM17.5094 15.4248C17.9274 15.4203 18.2708 15.0679 18.2589 14.6553C18.2469 14.2442 17.8827 13.9039 17.4706 13.9189C17.0765 13.934 16.7496 14.2728 16.7466 14.6689C16.7436 15.0875 17.087 15.4294 17.508 15.4233L17.5094 15.4248Z" fill="#1195FF"/>
<path d="M30.1597 11.4493H4.84872C4.84872 11.2566 4.84872 11.0849 4.84872 10.9117C4.84872 7.71319 4.84872 4.51467 4.84872 1.31615C4.85021 0.287626 5.14132 0 6.17137 0C13.7311 0 21.2893 0 28.849 0C29.8686 0 30.1597 0.293649 30.1597 1.33121C30.1597 4.52973 30.1597 7.72824 30.1597 10.9268V11.4493Z" fill="#1195FF"/>
<path d="M32.1183 44.9765H29.5133C29.5133 44.1889 29.5133 43.4194 29.5133 42.6484C29.5133 42.4872 29.5103 42.3261 29.5133 42.1635C29.5178 41.8006 29.3551 41.5491 28.9908 41.5461C28.6266 41.5431 28.4579 41.79 28.4579 42.1544C28.4579 42.93 28.4579 43.704 28.4579 44.4795C28.4579 44.6362 28.4579 44.7928 28.4579 44.972H25.8544C25.8544 44.8018 25.8544 44.6331 25.8544 44.463C25.8544 43.2357 25.8589 42.0084 25.8514 40.7811C25.8484 40.3308 25.6215 40.0838 25.2692 40.1275C24.8826 40.1757 24.796 40.4468 24.7975 40.7901C24.8019 42.0008 24.799 43.2116 24.799 44.4238C24.799 44.597 24.799 44.7702 24.799 44.9946H22.7478C21.7551 44.9946 20.7623 45.0066 19.7711 44.9855C19.5591 44.981 19.3501 44.8575 19.1411 44.7898C19.2411 44.603 19.3098 44.3877 19.4471 44.2371C19.7935 43.8561 20.1637 43.4992 20.5354 43.1438C21.5804 42.1424 22.088 40.9196 22.0641 39.4649C22.0521 38.6939 22.0626 37.9214 22.0626 37.1157H35.8907C35.8982 37.2919 35.9101 37.4771 35.9161 37.6624C35.9445 38.6291 35.9041 39.605 36.0161 40.5627C36.1311 41.5521 36.661 42.3713 37.3671 43.067C37.8135 43.5067 38.2643 43.9434 38.6928 44.4012C38.7838 44.4991 38.8226 44.6874 38.8077 44.8259C38.8002 44.8922 38.6107 44.9855 38.5032 44.987C36.7461 44.9976 34.989 44.9946 33.1767 44.9946V44.4344C33.1767 42.5294 33.1752 40.6229 33.1782 38.718C33.1782 38.4093 33.1529 38.1247 32.8095 38.0147C32.4184 37.8898 32.1243 38.1744 32.1228 38.6909C32.1183 40.5958 32.1213 42.5023 32.1213 44.4073C32.1213 44.5819 32.1213 44.7566 32.1213 44.978L32.1183 44.9765Z" fill="#1195FF"/>
<path d="M22.076 35.9712C22.076 35.0873 22.0372 34.2485 22.0865 33.4142C22.1357 32.586 22.7866 32.0258 23.642 32.0107C24.5347 31.9942 25.4274 32.0077 26.3784 32.0077C26.3784 31.7713 26.3784 31.583 26.3784 31.3948C26.3784 29.7308 26.3545 28.0683 26.3858 26.4043C26.4232 24.3668 28.3653 23.1094 30.1179 23.9783C31.1405 24.4843 31.5928 25.3667 31.5973 26.4961C31.6018 28.1436 31.5973 29.791 31.5988 31.437C31.5988 31.6102 31.5988 31.7818 31.5988 32.0047C32.4632 32.0047 33.2753 32.0047 34.0874 32.0047C35.3115 32.0077 35.9056 32.6086 35.9101 33.8509C35.9131 34.5436 35.9101 35.2348 35.9101 35.9697H22.0745L22.076 35.9712ZM29.8985 26.4329C29.9059 25.9194 29.5178 25.5083 29.0117 25.4947C28.4833 25.4812 28.0653 25.8923 28.0698 26.4239C28.0727 26.9329 28.4773 27.3409 28.9804 27.3425C29.4835 27.344 29.891 26.9404 29.8985 26.4314V26.4329Z" fill="#1195FF"/>
<path d="M16.3301 37.1052V41.5747H4.45463V37.1052H16.3301ZM10.3722 39.867C11.0619 39.867 11.3306 39.7195 11.3276 39.3415C11.3246 38.9605 11.0485 38.8069 10.3677 38.8084C9.71687 38.8084 9.45562 38.953 9.43771 39.3204C9.41979 39.7074 9.69298 39.867 10.3707 39.867H10.3722Z" fill="#1195FF"/>
<path d="M4.44118 35.9667V31.9385H16.3152V35.9667H4.44118ZM10.5722 33.4353C9.70491 33.4353 9.43919 33.5799 9.43769 33.9594C9.43769 34.3434 9.71536 34.5015 10.3916 34.5015C11.0544 34.5015 11.3694 34.3238 11.3216 33.9398C11.25 33.3661 10.7977 33.4323 10.5722 33.4353Z" fill="#1195FF"/>
<path d="M4.45164 30.8075V26.8967H16.3062V30.8075H4.45164ZM10.3767 29.3875C11.0574 29.3875 11.3247 29.2414 11.3291 28.8664C11.3336 28.4854 11.053 28.3213 10.3901 28.3213C9.71836 28.3213 9.44368 28.4749 9.43771 28.8529C9.43174 29.2324 9.70343 29.3875 10.3752 29.3875H10.3767Z" fill="#1195FF"/>
<path d="M40.4812 14.1087H35.5832C35.5832 12.8588 35.4981 11.63 35.6071 10.4177C35.7175 9.20095 36.9461 8.30043 38.1434 8.38175C39.4228 8.46909 40.4334 9.45093 40.4737 10.7114C40.5095 11.8348 40.4812 12.9597 40.4812 14.1072V14.1087Z" fill="#1195FF"/>
</svg>
