<svg width="20" height="20" viewBox="0 0 20 20" fill="none" xmlns="http://www.w3.org/2000/svg">
<path d="M4.88265 3.93292C4.21075 3.93292 3.79162 4.53499 3.98357 5.10386C4.6718 7.14356 5.95431 10.2119 7.86697 12.1246C9.7796 14.0372 12.848 15.3198 14.8877 16.008C15.4565 16.1999 16.0586 15.7808 16.0586 15.1089V13.0378C16.0586 12.9637 16.0185 12.8954 15.9537 12.8594L14.1497 11.8564C14.0907 11.8236 14.0195 11.8221 13.9592 11.8522L12.0353 12.8142C11.915 12.8743 11.7782 12.8932 11.6461 12.8679L11.7614 12.2665C11.6461 12.8679 11.6461 12.8679 11.6461 12.8679L11.6443 12.8675L11.642 12.8671L11.6359 12.8658L11.6174 12.862C11.6024 12.8588 11.5821 12.8543 11.5569 12.8484C11.5066 12.8365 11.4365 12.8187 11.3502 12.7938C11.1778 12.744 10.9388 12.6653 10.6612 12.547C10.1083 12.3113 9.38658 11.9123 8.73294 11.2586C8.07939 10.6051 7.67918 9.88232 7.44247 9.32863C7.32358 9.05056 7.24426 8.81121 7.19405 8.63851C7.16891 8.55202 7.15095 8.48185 7.13891 8.43143C7.13289 8.40621 7.12833 8.38589 7.1251 8.37089L7.12121 8.35244L7.11997 8.3463L7.11951 8.34401L7.11933 8.34307C7.11933 8.34307 7.11917 8.34226 7.72024 8.22535L7.11933 8.34307C7.09354 8.2105 7.11215 8.07231 7.17255 7.95151L8.13465 6.02728C8.16475 5.96708 8.16325 5.89582 8.13055 5.83691V5.83691L7.13191 4.03801C7.09588 3.97311 7.02752 3.93292 6.95344 3.93292H4.88265ZM8.36972 8.29559L8.37002 8.29661C8.40855 8.42913 8.47186 8.62108 8.56854 8.84721C8.76295 9.30196 9.08558 9.87934 9.59889 10.3926V10.3926M9.59889 10.3926C10.1121 10.9059 10.6882 11.2272 11.1413 11.4203C11.3667 11.5164 11.5579 11.5791 11.6898 11.6171V11.6171L13.4115 10.7569V10.7569C13.8335 10.5459 14.3324 10.5568 14.7447 10.786L16.5487 11.789C17.0022 12.0411 17.2833 12.5191 17.2833 13.0378V15.1089C17.2833 16.5464 15.926 17.6509 14.4962 17.1684C12.4309 16.4715 9.12717 15.1167 7.00101 12.9905C4.87482 10.8644 3.52005 7.5607 2.82318 5.4954C2.34072 4.06554 3.44515 2.70825 4.88265 2.70825H6.95344C7.4725 2.70825 7.95067 2.98979 8.20259 3.4435L9.20129 5.2425C9.43009 5.65467 9.44091 6.15326 9.23 6.575L8.36972 8.29559" fill="#BCBCBC"/>
</svg>
