<svg width="50" height="50" viewBox="0 0 50 50" fill="none" xmlns="http://www.w3.org/2000/svg">
<path d="M49.9761 1.20521C49.9406 0.568016 49.4345 0.0609889 48.7973 0.0254879C48.7946 0.0254879 48.7927 0.0254879 48.7891 0.0245776C48.6289 0.0172954 48.1838 0 47.502 0C45.2618 0 40.7422 0.188428 35.6519 1.44553C29.2299 3.03306 24.0349 5.77574 20.2108 9.60166C18.5568 11.2556 17.0885 13.1873 15.846 15.3428L15.7559 15.4994L15.6958 15.6032L15.6102 15.5185L13.7997 13.7079C13.5685 13.4758 13.2453 13.342 12.9158 13.342C12.7292 13.342 12.5498 13.3821 12.3833 13.4613L0.714351 18.9876C0.264671 19.2015 -0.0157039 19.6621 0.000681211 20.1609L0.615122 37.9697C0.632417 38.4667 0.941918 38.9055 1.40525 39.0875C1.54999 39.1458 1.70474 39.1749 1.86313 39.1749C2.1972 39.1749 2.51033 39.0447 2.7461 38.8081L12.8521 28.7021L12.9176 28.6375L12.9831 28.7021L16.1928 31.9118L16.2574 31.9773L16.1928 32.0429L6.08683 42.1488C5.85107 42.3837 5.7209 42.6968 5.7209 43.0318C5.7209 43.3668 5.85016 43.679 6.08683 43.9148C6.32168 44.1505 6.63483 44.2807 6.9689 44.2807C7.30297 44.2807 7.61611 44.1514 7.85278 43.9148L17.9587 33.8079L18.0243 33.7433L18.0898 33.8079L21.2986 37.0175L21.3632 37.0831L21.2986 37.1486L11.1935 47.2546C10.8403 47.606 10.7311 48.1321 10.9131 48.5945C11.0961 49.0579 11.5349 49.3683 12.0328 49.3856L29.8407 49.9991C29.8561 50 29.8689 50 29.8807 50H29.8844C30.3641 50 30.8065 49.7196 31.0122 49.2854L36.5394 37.6174C36.7643 37.1413 36.6651 36.5724 36.2937 36.2001L34.4831 34.3905L34.3984 34.3058L34.5022 34.2448L34.6579 34.1547C36.8152 32.9131 38.7469 31.4448 40.3999 29.7899C42.8322 27.3567 44.8485 24.3309 46.3923 20.7963C47.6176 17.9945 48.5515 14.8667 49.1678 11.4987C50.1764 5.98511 49.9998 1.67765 49.9761 1.2043V1.20521ZM11.7907 26.1843L11.7825 26.2216L11.777 26.248L11.7579 26.2671L3.163 34.862L3.01373 35.0104L3.00644 34.7992L2.52945 20.9538L2.52763 20.8937L2.58224 20.8682L12.5999 16.1238L12.6591 16.0956L12.7046 16.1411L14.4596 17.8962L14.5042 17.9408L14.4778 17.999L14.4387 18.0864C13.329 20.5223 12.4388 23.2468 11.7925 26.1843H11.7907ZM33.8778 37.4026L29.1325 47.4203L29.107 47.4749L29.0469 47.4731L15.2015 46.9952L14.9903 46.9879L15.1387 46.8386L23.7336 38.2446L23.7518 38.2264L23.7773 38.2209L23.8164 38.2118C26.7566 37.5646 29.4811 36.6744 31.9152 35.5656L32.0008 35.5265L32.0599 35.5001L32.1045 35.5447L33.8605 37.2997L33.906 37.3452L33.8778 37.4044V37.4026ZM47.5038 2.58975V2.72903C47.492 4.2938 47.3727 7.46341 46.6964 11.1218C46.1384 14.1476 45.3 16.9822 44.204 19.5447C42.7612 22.9182 40.8869 25.771 38.634 28.0249C36.7597 29.8991 34.4877 31.5094 31.8797 32.812L31.8651 32.8193H31.8624L31.8597 32.8211C31.7923 32.8475 31.7249 32.8821 31.6594 32.9213L31.6576 32.9231H31.6548L31.643 32.9304C29.269 34.091 26.5819 35.0177 23.6526 35.6894L23.5779 35.7067L23.5288 35.7177L23.4933 35.6822L19.854 32.0438L19.7893 31.9782L19.854 31.9127L25.0471 26.7195C25.2829 26.4847 25.413 26.1715 25.413 25.8365C25.413 25.5016 25.2838 25.1893 25.0471 24.9536C24.8132 24.7178 24.5 24.5876 24.1651 24.5876C23.8301 24.5876 23.5178 24.7169 23.2821 24.9536L18.0889 30.1467L18.0234 30.2114L17.9578 30.1467L14.3185 26.5083L14.283 26.4719L14.2949 26.4228L14.3122 26.3481C14.9812 23.4252 15.9079 20.7381 17.0694 18.3613L17.0712 18.3586L17.073 18.3558L17.0794 18.3449C17.1213 18.273 17.1559 18.2057 17.1804 18.141V18.1383L17.1823 18.1356L17.1877 18.1237C18.4922 15.5139 20.1025 13.241 21.9767 11.3667C25.4431 7.90125 30.1938 5.39251 36.0979 3.90966C40.8706 2.71082 45.148 2.51056 47.2717 2.49782H47.4109L47.5047 2.49599V2.58975H47.5038Z" fill="white"/>
<path d="M34.6042 9.80566C33.1104 9.80566 31.7068 10.3873 30.6508 11.4442C29.5931 12.5001 29.0123 13.9038 29.0123 15.3975C29.0123 16.8913 29.594 18.295 30.6508 19.3509C31.7059 20.4077 33.1104 20.9885 34.6042 20.9885C36.098 20.9885 37.5016 20.4068 38.5585 19.3509C39.6126 18.2959 40.1924 16.8922 40.1924 15.3975C40.1924 13.9028 39.6117 12.4974 38.5575 11.4442C37.5016 10.3864 36.098 9.80566 34.6042 9.80566ZM36.7925 17.5849C36.2081 18.1693 35.4307 18.4916 34.6042 18.4916C33.7777 18.4916 33.0012 18.1693 32.4159 17.5849C31.8315 17.0005 31.5101 16.2232 31.5101 15.3975C31.5101 14.5719 31.8324 13.7936 32.4168 13.2092C32.7081 12.9188 33.0449 12.6922 33.4199 12.5374C33.794 12.3818 34.1927 12.3035 34.6042 12.3035C35.4298 12.3035 36.2072 12.6248 36.7925 13.2092C37.9986 14.4153 37.9986 16.3788 36.7925 17.5849Z" fill="white"/>
</svg>
