<svg width="21" height="23" viewBox="0 0 21 23" fill="none" xmlns="http://www.w3.org/2000/svg">
<path fill-rule="evenodd" clip-rule="evenodd" d="M6.60758 0C7.07702 0 7.45758 0.380558 7.45758 0.85V2.27027H12.6667V0.85C12.6667 0.380558 13.0472 0 13.5167 0C13.9861 0 14.3667 0.380558 14.3667 0.85V2.27027H16.9712C18.7011 2.27027 20.1242 3.65583 20.1242 5.39054V8.79595C20.1242 9.26539 19.7437 9.64595 19.2742 9.64595C18.8048 9.64595 18.4242 9.26539 18.4242 8.79595V5.39054C18.4242 4.61758 17.7852 3.97027 16.9712 3.97027H14.3667V5.39054C14.3667 5.85998 13.9861 6.24054 13.5167 6.24054C13.0472 6.24054 12.6667 5.85998 12.6667 5.39054V3.97027H7.45758V5.39054C7.45758 5.85998 7.07702 6.24054 6.60758 6.24054C6.13813 6.24054 5.75758 5.85998 5.75758 5.39054V3.97027H3.15303C2.33902 3.97027 1.7 4.61759 1.7 5.39054V9.08108H6.60758C7.07702 9.08108 7.45758 9.46164 7.45758 9.93108C7.45758 10.4005 7.07702 10.7811 6.60758 10.7811H1.7V19.0122C1.7 19.7851 2.33901 20.4324 3.15303 20.4324H6.60758C7.07702 20.4324 7.45758 20.813 7.45758 21.2824C7.45758 21.7519 7.07702 22.1324 6.60758 22.1324H3.15303C1.42319 22.1324 0 20.7469 0 19.0122V5.39054C0 3.65582 1.42318 2.27027 3.15303 2.27027H5.75758V0.85C5.75758 0.380558 6.13813 0 6.60758 0ZM14.6682 12.4838C12.2642 12.4838 10.3364 14.4016 10.3364 16.7419C10.3364 19.0822 12.2642 21 14.6682 21C17.0721 21 19 19.0822 19 16.7419C19 14.4016 17.0721 12.4838 14.6682 12.4838ZM8.63636 16.7419C8.63636 13.4399 11.3484 10.7838 14.6682 10.7838C17.988 10.7838 20.7 13.4399 20.7 16.7419C20.7 20.0439 17.988 22.7 14.6682 22.7C11.3484 22.7 8.63636 20.0439 8.63636 16.7419ZM14.6682 13.8486C15.1376 13.8486 15.5182 14.2292 15.5182 14.6986V16.2876L16.3358 17.1943C16.6502 17.5429 16.6224 18.0804 16.2738 18.3948C15.9251 18.7091 15.3877 18.6814 15.0733 18.3327L14.0369 17.1834C13.8961 17.0273 13.8182 16.8245 13.8182 16.6142V14.6986C13.8182 14.2292 14.1987 13.8486 14.6682 13.8486Z" fill="white"/>
</svg>
