<svg width="134" height="17" viewBox="0 0 134 17" fill="none" xmlns="http://www.w3.org/2000/svg">
<g clip-path="url(#clip0_33_165)">
<path d="M67.0016 14.3968L62.1117 16.9226C61.6326 17.171 61.0714 16.771 61.1633 16.2452L62.0986 10.8936L58.1407 7.10328C57.7535 6.73231 57.9668 6.08392 58.5017 6.0065L63.9692 5.22586L66.4142 0.354891C66.6538 -0.122529 67.3462 -0.122529 67.5858 0.354891L70.0308 5.22586L75.4983 6.0065C76.0332 6.08392 76.2465 6.72908 75.8593 7.10328L71.9014 10.8936L72.8367 16.2452C72.9286 16.771 72.3674 17.171 71.8883 16.9226L66.9984 14.3936L67.0016 14.3968Z" fill="#FFD782"/>
<path d="M95.9703 14.3968L91.0803 16.9226C90.6012 17.171 90.04 16.771 90.1319 16.2452L91.0672 10.8936L87.1093 7.10328C86.7221 6.73231 86.9354 6.08392 87.4703 6.0065L92.9379 5.22586L95.3828 0.354891C95.6224 -0.122529 96.3148 -0.122529 96.5544 0.354891L98.9994 5.22586L104.467 6.0065C105.002 6.08392 105.215 6.72908 104.828 7.10328L100.87 10.8936L101.805 16.2452C101.897 16.771 101.336 17.171 100.857 16.9226L95.967 14.3968H95.9703Z" fill="#FFD782"/>
<path d="M124.942 14.3968L120.052 16.9226C119.573 17.171 119.012 16.771 119.104 16.2452L120.039 10.8936L116.081 7.10328C115.694 6.73231 115.907 6.08392 116.442 6.0065L121.91 5.22586L124.355 0.354891C124.594 -0.122529 125.287 -0.122529 125.526 0.354891L127.971 5.22586L133.439 6.0065C133.974 6.08392 134.187 6.72908 133.8 7.10328L129.842 10.8936L130.777 16.2452C130.869 16.771 130.308 17.171 129.829 16.9226L124.939 14.3968H124.942Z" fill="#C7CFE2"/>
<path d="M9.05782 14.3968L4.16791 16.9226C3.68876 17.171 3.12757 16.771 3.21946 16.2452L4.15478 10.8935L0.196907 7.10323C-0.190347 6.73226 0.0229709 6.08387 0.557908 6.00645L6.02542 5.22581L8.47366 0.358065C8.71323 -0.119355 9.40569 -0.119355 9.64527 0.358065L12.0902 5.22903L17.5577 6.00968C18.0927 6.0871 18.306 6.73226 17.9187 7.10645L13.9609 10.8968L14.8962 16.2484C14.9881 16.7742 14.4269 17.1742 13.9477 16.9258L9.05782 14.4V14.3968Z" fill="#FFD782"/>
<path d="M38.0297 14.3968L33.1398 16.9226C32.6607 17.171 32.0995 16.771 32.1914 16.2452L33.1267 10.8936L29.1688 7.10328C28.7816 6.73231 28.9949 6.08392 29.5298 6.0065L34.9973 5.22586L37.4423 0.354891C37.6819 -0.122529 38.3743 -0.122529 38.6139 0.354891L41.0589 5.22586L46.5264 6.0065C47.0613 6.08392 47.2746 6.72908 46.8874 7.10328L42.9295 10.8936L43.8648 16.2452C43.9567 16.771 43.3955 17.171 42.9164 16.9226L38.0265 14.3968H38.0297Z" fill="#FFD782"/>
</g>
<defs>
<clipPath id="clip0_33_165">
<rect width="134" height="17" fill="white"/>
</clipPath>
</defs>
</svg>
