<svg width="30" height="30" viewBox="0 0 30 30" fill="none" xmlns="http://www.w3.org/2000/svg">
<rect width="30" height="30" rx="5" fill="#1195FF"/>
<path d="M21.4582 11.9906C21.4677 12.1219 21.4677 12.2531 21.4677 12.3844C21.4677 16.3875 18.3744 21 12.7208 21C10.9791 21 9.36105 20.5031 8 19.6406C8.24747 19.6687 8.48539 19.6781 8.74239 19.6781C10.1795 19.6781 11.5025 19.2 12.559 18.3844C11.2075 18.3563 10.0749 17.4844 9.68464 16.2844C9.87501 16.3125 10.0653 16.3312 10.2652 16.3312C10.5413 16.3312 10.8173 16.2937 11.0743 16.2281C9.66562 15.9469 8.60911 14.7281 8.60911 13.2562V13.2188C9.01836 13.4438 9.49429 13.5844 9.9987 13.6031C9.17065 13.0594 8.62816 12.1312 8.62816 11.0812C8.62816 10.5187 8.78041 10.0031 9.04693 9.55311C10.5603 11.3906 12.835 12.5906 15.3858 12.7219C15.3382 12.4969 15.3096 12.2625 15.3096 12.0281C15.3096 10.3594 16.6802 9 18.3839 9C19.269 9 20.0685 9.36562 20.6301 9.95625C21.3249 9.82501 21.9911 9.57187 22.5812 9.225C22.3528 9.92814 21.8674 10.5188 21.2297 10.8937C21.8484 10.8281 22.448 10.6594 23 10.425C22.5813 11.025 22.0578 11.5593 21.4582 11.9906Z" fill="white"/>
</svg>
