<svg width="45" height="45" viewBox="0 0 45 45" fill="none" xmlns="http://www.w3.org/2000/svg">
<path d="M34.3642 0C34.3506 0.173445 34.3233 0.346889 34.3233 0.520334C34.3206 2.94992 34.3219 5.38088 34.3219 7.81047V8.36085H11.4248V0C14.7062 0 17.9875 0 21.2689 0C21.1337 0.181639 21 0.363278 20.9099 0.48346C22.9382 2.51153 24.957 4.53278 26.9607 6.53627C27.2665 6.23991 27.6104 5.90804 27.9749 5.55706C27.8548 5.43141 27.7483 5.31396 27.6364 5.20197C26.0244 3.58908 24.4124 1.97618 22.8017 0.361912C22.6911 0.25129 22.5997 0.121548 22.4987 0C26.4543 0 30.4086 0 34.3642 0V0ZM21.7834 5.60759C20.7993 4.62018 19.7933 3.61093 18.8188 2.63308C18.5076 2.92944 18.1622 3.25857 17.8524 3.55357C18.8597 4.56009 19.8589 5.55842 20.8621 6.56085C21.1651 6.24674 21.4982 5.90122 21.7821 5.60759H21.7834Z" fill="#1195FF"/>
<path d="M44.9999 19.4313C44.7119 20.0827 44.2969 20.5744 43.5134 20.5894C42.7163 20.6044 42.0857 20.0663 41.9629 19.2674C41.8564 18.5722 42.3123 17.8498 43.0016 17.6258C43.7277 17.3882 44.503 17.7228 44.847 18.4206C44.8975 18.5231 44.9494 18.6255 44.9999 18.7293V19.4326V19.4313Z" fill="#1195FF"/>
<path d="M35.8738 8.39086V3.84033H43.4493V15.9664C41.3364 16.5223 40.4232 17.4673 40.4273 19.0898C40.4314 20.6849 41.3487 21.6273 43.4548 22.1831V43.4663H25.1971C25.1971 38.3995 25.1971 33.3369 25.1971 28.2755C26.3819 27.9532 26.7013 27.5271 26.7013 26.2734C26.7013 24.5595 26.7013 22.8441 26.7013 21.1302V20.5975C26.9129 20.5975 27.0835 20.5975 27.2541 20.5975C29.5104 20.5975 31.7653 20.5975 34.0216 20.5975C35.2869 20.5975 35.8492 20.0349 35.8506 18.7798C35.8506 18.3878 35.8506 17.9959 35.8506 17.5575C36.772 17.5575 37.6469 17.5575 38.5218 17.5575C39.8704 17.5575 40.4246 17.0085 40.4246 15.6728C40.4246 13.8264 40.4259 11.9799 40.4246 10.1335C40.4246 8.99997 39.8267 8.39906 38.6911 8.3936C37.7684 8.38813 36.847 8.3936 35.8725 8.3936L35.8738 8.39086ZM27.4725 29.7833C27.463 29.9362 27.452 30.0373 27.452 30.1397C27.452 32.7633 27.4507 35.3854 27.4534 38.0089C27.4534 38.2124 27.4739 38.42 27.5107 38.6208C27.736 39.8226 28.9822 40.6475 30.1792 40.3921C31.3258 40.1476 32.0206 39.2667 32.026 38.0062C32.0356 36.1161 32.0287 34.2259 32.0287 32.3358C32.0287 29.771 32.0274 27.2076 32.0301 24.6428C32.0301 24.0104 32.3031 23.6636 32.7822 23.6567C33.2722 23.6499 33.5589 24.0186 33.5616 24.6646C33.563 25.2942 33.5561 25.9252 33.5643 26.5548C33.5698 27.0232 33.5316 27.5026 33.6216 27.9546C33.8564 29.1291 34.917 29.8543 36.1277 29.73C37.2415 29.6153 38.1178 28.6552 38.1301 27.4793C38.1478 25.8965 38.1356 24.3136 38.1356 22.7321C38.1356 22.5464 38.1356 22.3607 38.1356 22.1626H36.6095C36.6095 22.347 36.6095 22.5041 36.6095 22.6625C36.6095 24.1566 36.6123 25.652 36.6068 27.1461C36.6068 27.3496 36.6068 27.5667 36.5358 27.7511C36.4007 28.1062 36.1086 28.2619 35.7291 28.2155C35.3469 28.169 35.0835 27.8508 35.078 27.4015C35.0658 26.3758 35.089 25.3502 35.0658 24.3246C35.0398 23.12 34.0653 22.1681 32.8655 22.1381C31.5155 22.1039 30.5027 23.1173 30.5014 24.528C30.4959 28.9393 30.5 33.3491 30.4986 37.7604C30.4986 37.9215 30.5082 38.084 30.4891 38.2438C30.4413 38.6331 30.1192 38.9103 29.7383 38.9089C29.3562 38.9076 29.0409 38.6262 28.9958 38.237C28.9794 38.0922 28.9863 37.9447 28.9863 37.7972C28.9863 35.2912 28.9863 32.7865 28.9863 30.2804C28.9863 30.1233 28.9863 29.9677 28.9863 29.7846H27.4698L27.4725 29.7833ZM37.3712 31.3115C37.3712 32.6554 37.3316 33.946 37.3821 35.2311C37.4285 36.4193 38.4004 37.3343 39.5415 37.3739C40.8764 37.4203 41.9274 36.4548 41.9329 35.1136C41.9479 31.3771 41.9383 27.6405 41.9383 23.9039C41.9383 23.8343 41.926 23.7646 41.9178 23.684H40.4246V24.2453C40.4246 27.7771 40.4246 31.3088 40.4246 34.8391C40.4246 35.4878 40.142 35.8593 39.6561 35.8579C39.1702 35.8552 38.9054 35.4974 38.9027 34.8309C38.8999 34.215 38.9027 33.6004 38.9027 32.9845C38.9027 32.4314 38.9027 31.8783 38.9027 31.3101H37.3725L37.3712 31.3115Z" fill="#1195FF"/>
<path d="M20.5672 43.48H2.35052C2.18673 42.7535 2.20993 42.7302 2.82689 42.4175C3.97618 41.833 4.59451 40.8893 4.56175 39.5946C4.52899 38.319 3.86972 37.4217 2.72042 36.8837C2.58802 36.8222 2.4488 36.7758 2.30138 36.7184V14.2416C3.31145 14.5748 4.31196 14.5844 5.3466 14.2321C5.3466 14.8234 5.3425 15.3629 5.3466 15.9023C5.35479 16.928 5.954 17.5371 6.98591 17.5535C7.79123 17.5657 8.59655 17.5562 9.40324 17.5562C9.56021 17.5562 9.71582 17.5562 9.92056 17.5562C9.92056 18.0151 9.92056 18.422 9.92056 18.829C9.92329 20.0336 10.4843 20.5949 11.7005 20.5962C13.9854 20.599 16.2703 20.5962 18.5553 20.5962C18.7122 20.5962 18.8692 20.5962 19.0699 20.5962C19.0699 20.9076 19.0699 21.1671 19.0699 21.428C19.0699 23.0545 19.0699 24.6811 19.0699 26.3076C19.0699 27.5327 19.3892 27.9574 20.5686 28.2824V43.4814L20.5672 43.48ZM17.5466 29.7847C17.5466 30.0128 17.5466 30.1862 17.5466 30.361C17.5466 32.8371 17.5466 35.3131 17.5452 37.7891C17.5452 37.9639 17.5452 38.1428 17.5083 38.3122C17.4278 38.6918 17.1685 38.894 16.7904 38.9008C16.4123 38.9076 16.1448 38.7096 16.0533 38.3354C16.0083 38.1538 16.011 37.9585 16.011 37.77C16.0083 33.4189 16.011 29.0664 16.0069 24.7152C16.0069 24.438 16.0069 24.1525 15.9441 23.8862C15.6697 22.7322 14.6488 22.0343 13.4449 22.1504C12.342 22.2569 11.463 23.2293 11.4384 24.4011C11.4193 25.368 11.4357 26.3349 11.4316 27.3019C11.4288 27.8891 11.1449 28.2278 10.6686 28.2237C10.1936 28.2196 9.92192 27.885 9.92056 27.2868C9.91783 25.734 9.92056 24.1812 9.92056 22.627C9.92056 22.4727 9.92056 22.317 9.92056 22.1641H8.38635C8.38635 22.6175 8.38499 23.0409 8.38635 23.4629C8.39454 24.8832 8.34131 26.309 8.43003 27.7239C8.52012 29.1674 10.0038 30.0811 11.3783 29.6372C12.3611 29.319 12.9494 28.4859 12.9644 27.3551C12.9781 26.3732 12.9589 25.3912 12.9794 24.4107C12.989 23.9504 13.3125 23.6541 13.7274 23.6527C14.1355 23.6527 14.4522 23.9627 14.4904 24.4066C14.5013 24.5377 14.4945 24.6701 14.4945 24.8026C14.4945 29.1988 14.4973 33.5937 14.4904 37.9899C14.4904 38.6003 14.6337 39.148 15.0309 39.6178C15.6602 40.3594 16.632 40.623 17.5356 40.302C18.4502 39.977 19.0603 39.148 19.063 38.1538C19.0739 35.4428 19.0671 32.7319 19.0658 30.0223C19.0658 29.9513 19.0521 29.8803 19.0426 29.782H17.5452L17.5466 29.7847ZM4.5713 23.6677C4.5713 24.9774 4.5713 26.2489 4.5713 27.5204C4.5713 30.0401 4.56311 32.5612 4.5754 35.0809C4.58222 36.3797 5.58956 37.3753 6.85624 37.3767C8.1311 37.378 9.12206 36.3906 9.1439 35.0919C9.15209 34.5934 9.14527 34.0949 9.14527 33.5978C9.14527 32.8412 9.14527 32.0832 9.14527 31.3157H7.63153C7.63153 32.467 7.63153 33.5923 7.63153 34.7176C7.63153 35.4852 7.36946 35.8676 6.85078 35.8594C6.34574 35.8512 6.09459 35.4824 6.09459 34.7381C6.09459 31.2214 6.09459 27.7047 6.09459 24.1894V23.6664H4.5713V23.6677Z" fill="#1195FF"/>
<path d="M9.9205 15.9993H6.88757V9.95465H38.8767V15.9924H35.8519C35.8519 15.5691 35.8533 15.1375 35.8519 14.7046C35.8478 13.5888 35.2582 12.977 34.1539 12.977C26.6412 12.9729 19.1271 12.9742 11.6144 12.977C10.5033 12.977 9.9246 13.5751 9.9205 14.6977C9.91914 15.1198 9.9205 15.5404 9.9205 15.9993Z" fill="#1195FF"/>
<path d="M34.2948 14.538V19.0585H26.7015C26.7015 18.6201 26.7029 18.1871 26.7015 17.7556C26.6947 16.6316 26.0832 16.0211 24.9585 16.0198C23.5676 16.017 22.1767 16.017 20.7858 16.0198C19.6802 16.0211 19.0741 16.6275 19.0701 17.7296C19.0687 18.1544 19.0701 18.5791 19.0701 19.0393H11.4618V14.538H34.2948Z" fill="#1195FF"/>
<path d="M20.6191 17.5807H25.129V23.6308H20.6191V17.5807Z" fill="#1195FF"/>
<path d="M23.6071 45H22.1548V28.2633H23.6071V45Z" fill="#1195FF"/>
<path d="M6.43176 8.4496C5.48585 8.79376 5.28657 9.54627 5.3398 10.4558C5.37256 11.024 5.32751 11.5976 5.35345 12.1671C5.3671 12.4634 5.27019 12.6246 4.99856 12.727C3.84654 13.164 2.77232 13.0302 1.83596 12.2285C0.899601 11.4268 0.570647 10.378 0.866842 9.18162C1.1644 7.98253 1.95608 7.2273 3.15451 6.95006C4.4867 6.64141 5.86804 7.28193 6.4304 8.4496H6.43176Z" fill="#1195FF"/>
<path d="M2.30139 5.55429V3.84033H9.89873V8.38813C9.34592 8.38813 8.81086 8.39769 8.27716 8.37857C8.19254 8.37584 8.08197 8.26658 8.03557 8.17918C6.74432 5.77554 5.05178 4.9807 2.42833 5.55429C2.40103 5.55976 2.371 5.55429 2.30139 5.55429Z" fill="#1195FF"/>
<path d="M0.000160758 39.6546C0.0110804 38.8079 0.712667 38.1387 1.56713 38.1565C2.39293 38.1742 3.06994 38.8762 3.05356 39.697C3.03718 40.5205 2.34515 41.202 1.52345 41.2034C0.681273 41.2034 -0.0121238 40.5 0.000160758 39.6533V39.6546Z" fill="#1195FF"/>
<path d="M20.6123 25.1987H25.1385V26.6832H20.6123V25.1987Z" fill="#1195FF"/>
</svg>
